IDResults
version=1
nRows=153
nColumns=3
inDegrees=yes

Units are S.I. units (second, meters, Newtons, ...)
If the header above contains a line with 'inDegrees', this indicates whether rotational values are in degrees (yes) or radians (no).

endheader
time	r_shoulder_elev	r_elbow_flex
     40.77500000	     -1.27758420	    100.80579479
     40.78300000	     -1.26721348	    100.80386681
     40.79200000	     -1.25814680	    100.80372403
     40.80000000	     -1.24687515	    100.79884617
     40.80800000	     -1.23800389	    100.79670975
     40.81700000	     -1.22918106	    100.79186327
     40.82500000	     -1.22029566	    100.79008536
     40.83300000	     -1.21145419	    100.78516603
     40.84200000	     -1.20478154	    100.78304197
     40.85000000	     -1.19708433	    100.77988843
     40.85800000	     -1.19044795	    100.77766539
     40.86700000	     -1.18380442	    100.77551328
     40.87500000	     -1.17938120	    100.77701697
     40.88300000	     -1.17447373	    100.77804226
     40.89200000	     -1.16859128	    100.77574738
     40.90000000	     -1.16420150	    100.77338693
     40.90800000	     -1.16159626	    100.77376287
     40.91700000	     -1.15650157	    100.76737357
     40.92500000	     -1.15496934	    100.76727895
     40.93300000	     -1.15127111	    100.75990623
     40.94200000	     -1.14928033	    100.75296580
     40.95000000	     -1.14894972	    100.74625254
     40.95800000	     -1.14824378	    100.73864964
     40.96700000	     -1.14555712	    100.72399429
     40.97500000	     -1.14518411	    100.71185587
     40.98300000	     -1.14498928	    100.69763139
     40.99200000	     -1.14637334	    100.68277520
     41.00000000	     -1.14702062	    100.66699485
     41.00800000	     -1.14838073	    100.64989941
     41.01700000	     -1.14864730	    100.62704253
     41.02500000	     -1.15183113	    100.60697736
     41.03300000	     -1.15185109	    100.58171704
     41.04200000	     -1.15309329	    100.55275779
     41.05000000	     -1.15531542	    100.52237045
     41.05800000	     -1.15781640	    100.49036534
     41.06700000	     -1.15984822	    100.45759065
     41.07500000	     -1.16258039	    100.42349818
     41.08300000	     -1.16531353	    100.38739234
     41.09200000	     -1.16976047	    100.35484486
     41.10000000	     -1.17434788	    100.32006750
     41.10800000	     -1.18005867	    100.28665164
     41.11700000	     -1.18494039	    100.24997964
     41.12500000	     -1.19180081	    100.21786737
     41.13300000	     -1.19887341	    100.18116593
     41.14200000	     -1.20691381	    100.14786155
     41.15000000	     -1.21311054	    100.10806495
     41.15800000	     -1.22233737	    100.07356306
     41.16700000	     -1.23049880	    100.03813188
     41.17500000	     -1.23875636	    100.00048794
     41.18300000	     -1.24912890	     99.96727039
     41.19200000	     -1.25837877	     99.93054353
     41.20000000	     -1.26770712	     99.89644972
     41.20800000	     -1.27812438	     99.86103907
     41.21700000	     -1.28741967	     99.82439331
     41.22500000	     -1.29683171	     99.78809747
     41.23300000	     -1.30597313	     99.75122110
     41.24200000	     -1.31627736	     99.71794264
     41.25000000	     -1.32441769	     99.68023843
     41.25800000	     -1.33464910	     99.64686959
     41.26700000	     -1.34360394	     99.61213439
     41.27500000	     -1.35258080	     99.57737399
     41.28300000	     -1.36155075	     99.54260712
     41.29200000	     -1.37057335	     99.50788477
     41.30000000	     -1.37974954	     99.47362965
     41.30800000	     -1.38859152	     99.44102285
     41.31700000	     -1.39753681	     99.40863491
     41.32500000	     -1.40758970	     99.37740617
     41.33300000	     -1.41551607	     99.34417863
     41.34200000	     -1.42459037	     99.31440041
     41.35000000	     -1.43238550	     99.28330653
     41.35800000	     -1.44145042	     99.25358895
     41.36700000	     -1.44936151	     99.22265773
     41.37500000	     -1.45717495	     99.19386691
     41.38300000	     -1.46369295	     99.16597317
     41.39200000	     -1.47052825	     99.13864893
     41.40000000	     -1.47796986	     99.11632727
     41.40800000	     -1.48431038	     99.09292211
     41.41700000	     -1.49186879	     99.07077926
     41.42500000	     -1.49808413	     99.04953899
     41.43300000	     -1.50432736	     99.02828925
     41.44200000	     -1.50975785	     99.00406443
     41.45000000	     -1.51504862	     98.98194664
     41.45800000	     -1.52054051	     98.95780903
     41.46700000	     -1.52475031	     98.93221792
     41.47500000	     -1.52821955	     98.90371963
     41.48300000	     -1.53048491	     98.87380774
     41.49200000	     -1.53276237	     98.84124560
     41.50000000	     -1.53391258	     98.80808524
     41.50800000	     -1.53406680	     98.76908026
     41.51700000	     -1.53481447	     98.72848524
     41.52500000	     -1.53409095	     98.68417912
     41.53300000	     -1.53383073	     98.63779234
     41.54200000	     -1.53519938	     98.58847516
     41.55000000	     -1.53464799	     98.53507026
     41.55800000	     -1.53549536	     98.47654605
     41.56700000	     -1.53680955	     98.41810295
     41.57500000	     -1.53913898	     98.35595814
     41.58300000	     -1.54073575	     98.28854043
     41.59200000	     -1.54327912	     98.22201010
     41.60000000	     -1.54485638	     98.14977413
     41.60800000	     -1.54750911	     98.07641331
     41.61700000	     -1.55031629	     98.00095684
     41.62500000	     -1.55194098	     97.92182370
     41.63300000	     -1.55366212	     97.84050775
     41.64200000	     -1.55636089	     97.76030684
     41.65000000	     -1.55887244	     97.67971627
     41.65800000	     -1.56163638	     97.59726993
     41.66700000	     -1.56336946	     97.51142797
     41.67500000	     -1.56622844	     97.42456372
     41.68300000	     -1.56713704	     97.33334964
     41.69200000	     -1.57018377	     97.24215470
     41.70000000	     -1.57101997	     97.14381578
     41.70800000	     -1.57094899	     97.04470962
     41.71700000	     -1.57082501	     96.94091497
     41.72500000	     -1.56975324	     96.83391475
     41.73300000	     -1.56755982	     96.72103450
     41.74200000	     -1.56643445	     96.60705133
     41.75000000	     -1.56516506	     96.49054567
     41.75800000	     -1.56520887	     96.36864402
     41.76700000	     -1.56517670	     96.24427013
     41.77500000	     -1.56512157	     96.11527562
     41.78300000	     -1.56589146	     95.98478228
     41.79200000	     -1.56784291	     95.85332711
     41.80000000	     -1.56854174	     95.71812203
     41.80800000	     -1.57032801	     95.58189417
     41.81700000	     -1.57294637	     95.44180181
     41.82500000	     -1.57458433	     95.29611920
     41.83300000	     -1.57827329	     95.14806393
     41.84200000	     -1.58074378	     94.99635795
     41.85000000	     -1.58217651	     94.83903443
     41.85800000	     -1.58562502	     94.68160222
     41.86700000	     -1.58798177	     94.51843133
     41.87500000	     -1.58901820	     94.34690364
     41.88300000	     -1.58995431	     94.17304134
     41.89200000	     -1.58968332	     93.99099443
     41.90000000	     -1.59018368	     93.80511730
     41.90800000	     -1.58956748	     93.61116404
     41.91700000	     -1.59069778	     93.41673728
     41.92500000	     -1.58936725	     93.21730844
     41.93300000	     -1.58981707	     93.01288396
     41.94200000	     -1.58987735	     92.80561505
     41.95000000	     -1.59188258	     92.59813623
     41.95800000	     -1.59426038	     92.38623687
     41.96700000	     -1.59753156	     92.17758920
     41.97500000	     -1.60127266	     91.96703329
     41.98300000	     -1.60787062	     91.76166549
     41.99200000	     -1.61622707	     91.55813769
     42.00000000	     -1.62531231	     91.35751325
     42.00800000	     -1.63715718	     91.16655433
     42.01700000	     -1.65089149	     90.98218968
     42.02500000	     -1.66422725	     90.79969227
     42.03300000	     -1.68062881	     90.62250363
     42.04200000	     -1.69468229	     90.44780379
